<?xml version="1.0" encoding="UTF-8"?>
<svg viewBox="0 0 337.28 210.61" xmlns="http://www.w3.org/2000/svg">
 <path d="m15.136 103.3c-15.455-60.909 119.13-59.896 160.91-59.091 70.773 1.363 149.66 3.704 152.39 57.341" fill="#eee" stroke="#000" stroke-width="3.664"/>
 <path d="m319.16 99.204c-3.726-39.437-107.44-42.938-151.29-43.182-41.604-0.23-124.14-3.396-147.43 44.734" fill="#a7c5ea"/>
 <g stroke="#000">
  <g stroke-width="2.917">
   <path d="m14.13 88.566s-5.478 0.604-4.859-7.304c0.07-0.993 3.413-11.729 11.546-8.519 118.86 46.915 238.86 20.552 306.05 0.171 7.738-2.348 7.907 8.348 7.306 10.785-1.626 6.513-7.98 4.532-5.48 5.032s4.984 108.1-160.36 103.96c-165.35-4.135-154.2-104.12-154.2-104.12z" fill="#eee"/>
   <path d="m14.538 88.066c48.553 15.639 95.144 27.956 160.6 26.139 65.725-1.825 136.11-12.387 153.57-25.61" fill="none"/>
   <g fill="#c0c0c0">
    <path d="m56.67 171.75s16.437 18.863 7.306 23.723c-9.132 4.867-17.645 0.605-18.262-1.825-0.603-2.43-5.465-3.646-8.514-1.827-3.033 1.827-1.824 12.782 6.084 12.782 7.921 0 22.516 1.216 24.342 0 1.826-1.22 4.862-20.077 12.785-23.731 7.907-3.652-3.049-6.686-5.48-6.082-2.43 0.605-3.65-8.524-7.908-7.302-4.271 1.214-6.096-4.258-9.735-1.829-3.666 2.437-0.618 6.091-0.618 6.091z"/>
    <path d="m284.15 172.75s-16.437 18.864-7.306 23.724c9.116 4.867 17.644 0.605 18.246-1.826 0.617-2.427 5.48-3.646 8.527-1.824 3.035 1.824 1.827 12.78-6.081 12.78-7.922 0-22.517 1.223-24.344 0-1.825-1.22-4.862-20.077-12.784-23.731-7.907-3.65 3.049-6.685 5.48-6.082 2.43 0.605 3.649-8.525 7.907-7.303 4.257 1.221 6.082-4.255 9.736-1.828 3.652 2.441 0.61899 6.09 0.61899 6.09z"/>
   </g>
  </g>
  <g fill="#c0c0c0">
   <path d="m319.28 35.265l1.84-16.831 5.466 9.427-2.733 22.214c-0.001007 0 0.301-5.385-4.573-14.81z" stroke-width="2.17"/>
   <path d="m320.21 74.287s8.479-23.671 2.397-29.752c-6.082-6.09-6.699-18.176-20.073-15.129-13.386 3.042-10.954 12.08-10.954 14.517 0 2.438 12.163 4.866 13.989 4.866s-0.271-9.826-0.271-9.826 9.402 3.745 7.576 6.175c-1.825 2.438-6.673 30.855-6.673 30.855l14.009-1.706z" stroke-width="2.917"/>
  </g>
  <path d="m306.75 77.613c-43.637-18.182-95.032-21.348-138.89-21.591-41.604-0.23-107.02 3.568-129.23 21.773" fill="none" stroke-width="2.03"/>
 </g>
</svg>
